<svg xmlns="http://www.w3.org/2000/svg" xmlns:xlink="http://www.w3.org/1999/xlink" width="512" zoomAndPan="magnify" viewBox="0 0 384 383.999986" height="512" preserveAspectRatio="xMidYMid meet" version="1.0"><defs><g/><clipPath id="a6f56fab75"><path d="M 38 38 L 346 38 L 346 346 L 38 346 Z M 38 38 " clip-rule="nonzero"/></clipPath><clipPath id="f3c2b7f407"><path d="M 3.183594 83.535156 L 300.753906 3.101562 L 381.1875 300.675781 L 83.613281 381.105469 Z M 3.183594 83.535156 " clip-rule="nonzero"/></clipPath><clipPath id="0a62ed51c4"><path d="M 3.183594 83.535156 L 300.753906 3.101562 L 381.1875 300.675781 L 83.613281 381.105469 Z M 3.183594 83.535156 " clip-rule="nonzero"/></clipPath><clipPath id="470cb18c97"><path d="M 52 52 L 332 52 L 332 332 L 52 332 Z M 52 52 " clip-rule="nonzero"/></clipPath><clipPath id="eac65103d7"><path d="M 3.183594 83.535156 L 300.753906 3.101562 L 381.1875 300.675781 L 83.613281 381.105469 Z M 3.183594 83.535156 " clip-rule="nonzero"/></clipPath><clipPath id="878b8dad55"><path d="M 3.183594 83.535156 L 300.753906 3.101562 L 381.1875 300.675781 L 83.613281 381.105469 Z M 3.183594 83.535156 " clip-rule="nonzero"/></clipPath><clipPath id="c8d490921c"><path d="M 118.105469 120.011719 L 265.855469 120.011719 L 265.855469 264 L 118.105469 264 Z M 118.105469 120.011719 " clip-rule="nonzero"/></clipPath><clipPath id="90624d362d"><rect x="0" width="191" y="0" height="168"/></clipPath></defs><rect x="-38.4" width="460.8" fill="#ffffff" y="-38.399999" height="460.799983" fill-opacity="1"/><rect x="-38.4" width="460.8" fill="#ff98c0" y="-38.399999" height="460.799983" fill-opacity="1"/><g clip-path="url(#a6f56fab75)"><g clip-path="url(#f3c2b7f407)"><g clip-path="url(#0a62ed51c4)"><path fill="#ffffff" d="M 340.636719 151.820312 C 341.292969 154.253906 341.890625 156.699219 342.429688 159.164062 C 342.964844 161.625 343.441406 164.097656 343.859375 166.582031 C 344.273438 169.070312 344.628906 171.5625 344.921875 174.066406 C 345.214844 176.570312 345.449219 179.078125 345.617188 181.589844 C 345.789062 184.105469 345.898438 186.621094 345.945312 189.140625 C 345.992188 191.660156 345.976562 194.179688 345.898438 196.699219 C 345.820312 199.21875 345.683594 201.734375 345.484375 204.246094 C 345.28125 206.757812 345.019531 209.261719 344.695312 211.761719 C 344.375 214.261719 343.988281 216.75 343.542969 219.230469 C 343.097656 221.710938 342.589844 224.179688 342.023438 226.632812 C 341.457031 229.089844 340.832031 231.527344 340.144531 233.953125 C 339.457031 236.378906 338.710938 238.785156 337.90625 241.171875 C 337.101562 243.558594 336.238281 245.925781 335.320312 248.273438 C 334.398438 250.617188 333.417969 252.9375 332.382812 255.234375 C 331.351562 257.535156 330.257812 259.804688 329.113281 262.046875 C 327.964844 264.292969 326.765625 266.507812 325.511719 268.691406 C 324.253906 270.878906 322.945312 273.03125 321.585938 275.152344 C 320.226562 277.273438 318.8125 279.359375 317.351562 281.410156 C 315.886719 283.460938 314.375 285.476562 312.8125 287.453125 C 311.25 289.429688 309.640625 291.367188 307.980469 293.265625 C 306.324219 295.164062 304.621094 297.019531 302.875 298.835938 C 301.125 300.648438 299.332031 302.417969 297.496094 304.144531 C 295.664062 305.871094 293.785156 307.554688 291.867188 309.1875 C 289.949219 310.820312 287.992188 312.410156 285.996094 313.945312 C 284 315.484375 281.96875 316.972656 279.902344 318.414062 C 277.832031 319.851562 275.730469 321.238281 273.589844 322.574219 C 271.453125 323.910156 269.285156 325.191406 267.085938 326.417969 C 264.886719 327.648438 262.65625 328.824219 260.398438 329.941406 C 258.140625 331.0625 255.859375 332.125 253.550781 333.132812 C 251.238281 334.140625 248.90625 335.089844 246.550781 335.984375 C 244.195312 336.875 241.816406 337.710938 239.417969 338.484375 C 237.023438 339.261719 234.605469 339.980469 232.175781 340.636719 C 229.742188 341.292969 227.292969 341.890625 224.832031 342.429688 C 222.371094 342.964844 219.898438 343.441406 217.410156 343.859375 C 214.925781 344.273438 212.433594 344.628906 209.929688 344.921875 C 207.425781 345.214844 204.917969 345.449219 202.402344 345.617188 C 199.890625 345.789062 197.375 345.898438 194.855469 345.945312 C 192.335938 345.992188 189.816406 345.976562 187.296875 345.898438 C 184.777344 345.820312 182.261719 345.683594 179.75 345.484375 C 177.238281 345.28125 174.734375 345.019531 172.234375 344.695312 C 169.734375 344.375 167.246094 343.988281 164.765625 343.542969 C 162.285156 343.097656 159.816406 342.589844 157.363281 342.023438 C 154.90625 341.457031 152.46875 340.832031 150.042969 340.144531 C 147.617188 339.457031 145.210938 338.710938 142.824219 337.90625 C 140.4375 337.101562 138.070312 336.238281 135.722656 335.320312 C 133.378906 334.398438 131.058594 333.417969 128.757812 332.382812 C 126.460938 331.351562 124.191406 330.257812 121.945312 329.113281 C 119.703125 327.964844 117.488281 326.765625 115.304688 325.511719 C 113.117188 324.253906 110.964844 322.945312 108.84375 321.585938 C 106.722656 320.226562 104.636719 318.8125 102.585938 317.351562 C 100.535156 315.886719 98.519531 314.375 96.542969 312.8125 C 94.566406 311.25 92.628906 309.640625 90.730469 307.980469 C 88.832031 306.324219 86.976562 304.621094 85.160156 302.875 C 83.347656 301.125 81.574219 299.332031 79.847656 297.496094 C 78.121094 295.664062 76.441406 293.785156 74.808594 291.867188 C 73.171875 289.949219 71.585938 287.992188 70.046875 285.996094 C 68.511719 284 67.023438 281.96875 65.582031 279.902344 C 64.144531 277.832031 62.757812 275.730469 61.421875 273.589844 C 60.085938 271.453125 58.804688 269.285156 57.574219 267.085938 C 56.347656 264.886719 55.171875 262.65625 54.054688 260.398438 C 52.933594 258.140625 51.871094 255.859375 50.863281 253.550781 C 49.855469 251.238281 48.90625 248.90625 48.011719 246.550781 C 47.121094 244.195312 46.285156 241.816406 45.507812 239.417969 C 44.734375 237.023438 44.015625 234.605469 43.359375 232.175781 C 42.703125 229.742188 42.105469 227.292969 41.566406 224.832031 C 41.03125 222.371094 40.554688 219.898438 40.136719 217.410156 C 39.722656 214.925781 39.367188 212.433594 39.074219 209.929688 C 38.78125 207.425781 38.546875 204.917969 38.378906 202.402344 C 38.207031 199.890625 38.097656 197.375 38.050781 194.855469 C 38.003906 192.335938 38.019531 189.816406 38.097656 187.296875 C 38.171875 184.777344 38.3125 182.261719 38.511719 179.75 C 38.714844 177.238281 38.976562 174.734375 39.296875 172.234375 C 39.621094 169.734375 40.007812 167.246094 40.453125 164.765625 C 40.898438 162.285156 41.40625 159.816406 41.972656 157.363281 C 42.539062 154.90625 43.164062 152.46875 43.851562 150.042969 C 44.539062 147.617188 45.285156 145.210938 46.089844 142.824219 C 46.894531 140.4375 47.757812 138.070312 48.675781 135.722656 C 49.597656 133.378906 50.574219 131.058594 51.609375 128.757812 C 52.644531 126.460938 53.738281 124.191406 54.882812 121.945312 C 56.03125 119.703125 57.230469 117.488281 58.484375 115.304688 C 59.742188 113.117188 61.046875 110.964844 62.410156 108.84375 C 63.769531 106.722656 65.183594 104.636719 66.644531 102.585938 C 68.109375 100.535156 69.621094 98.519531 71.183594 96.542969 C 72.746094 94.566406 74.355469 92.628906 76.011719 90.730469 C 77.671875 88.832031 79.375 86.976562 81.121094 85.160156 C 82.871094 83.347656 84.664062 81.574219 86.496094 79.847656 C 88.332031 78.121094 90.210938 76.441406 92.128906 74.808594 C 94.046875 73.171875 96.003906 71.585938 97.996094 70.046875 C 99.992188 68.511719 102.027344 67.023438 104.09375 65.582031 C 106.164062 64.144531 108.265625 62.757812 110.402344 61.421875 C 112.539062 60.085938 114.710938 58.804688 116.910156 57.574219 C 119.109375 56.347656 121.335938 55.171875 123.59375 54.054688 C 125.851562 52.933594 128.136719 51.871094 130.445312 50.863281 C 132.757812 49.855469 135.089844 48.90625 137.445312 48.011719 C 139.800781 47.121094 142.179688 46.285156 144.578125 45.507812 C 146.972656 44.734375 149.390625 44.015625 151.820312 43.359375 C 154.253906 42.703125 156.699219 42.105469 159.164062 41.566406 C 161.625 41.03125 164.097656 40.554688 166.582031 40.136719 C 169.070312 39.722656 171.5625 39.367188 174.066406 39.074219 C 176.570312 38.78125 179.078125 38.546875 181.589844 38.378906 C 184.105469 38.207031 186.621094 38.097656 189.140625 38.050781 C 191.660156 38.003906 194.179688 38.019531 196.699219 38.097656 C 199.21875 38.171875 201.734375 38.3125 204.246094 38.511719 C 206.757812 38.714844 209.261719 38.976562 211.761719 39.296875 C 214.261719 39.621094 216.75 40.007812 219.230469 40.453125 C 221.710938 40.898438 224.179688 41.40625 226.632812 41.972656 C 229.089844 42.539062 231.527344 43.164062 233.953125 43.851562 C 236.378906 44.539062 238.785156 45.285156 241.171875 46.089844 C 243.558594 46.894531 245.925781 47.757812 248.273438 48.675781 C 250.617188 49.597656 252.9375 50.574219 255.234375 51.609375 C 257.535156 52.644531 259.804688 53.738281 262.046875 54.882812 C 264.292969 56.03125 266.507812 57.230469 268.691406 58.484375 C 270.878906 59.742188 273.03125 61.046875 275.152344 62.410156 C 277.273438 63.769531 279.359375 65.183594 281.410156 66.644531 C 283.460938 68.109375 285.476562 69.621094 287.453125 71.183594 C 289.429688 72.746094 291.367188 74.355469 293.265625 76.011719 C 295.164062 77.671875 297.019531 79.375 298.835938 81.121094 C 300.648438 82.871094 302.417969 84.664062 304.144531 86.496094 C 305.871094 88.332031 307.554688 90.210938 309.1875 92.128906 C 310.820312 94.046875 312.410156 96.003906 313.945312 97.996094 C 315.484375 99.992188 316.972656 102.027344 318.414062 104.09375 C 319.851562 106.164062 321.238281 108.265625 322.574219 110.402344 C 323.910156 112.539062 325.191406 114.710938 326.417969 116.910156 C 327.648438 119.109375 328.824219 121.335938 329.941406 123.59375 C 331.0625 125.851562 332.125 128.136719 333.132812 130.445312 C 334.140625 132.757812 335.089844 135.089844 335.984375 137.445312 C 336.875 139.800781 337.710938 142.179688 338.484375 144.578125 C 339.261719 146.972656 339.980469 149.390625 340.636719 151.820312 Z M 340.636719 151.820312 " fill-opacity="1" fill-rule="nonzero"/></g></g></g><g clip-path="url(#470cb18c97)"><g clip-path="url(#eac65103d7)"><g clip-path="url(#878b8dad55)"><path fill="#ff98c0" d="M 228.34375 326.460938 C 154.132812 346.515625 77.59375 302.550781 57.535156 228.34375 C 37.476562 154.132812 81.445312 77.59375 155.652344 57.535156 C 229.863281 37.476562 306.402344 81.445312 326.460938 155.652344 C 346.515625 229.863281 302.550781 306.402344 228.34375 326.460938 Z M 156.550781 60.859375 C 84.113281 80.4375 41.28125 155.007812 60.859375 227.445312 C 80.4375 299.878906 155.230469 342.65625 227.445312 323.136719 C 299.878906 303.558594 342.65625 228.765625 323.136719 156.550781 C 303.558594 84.113281 228.988281 41.28125 156.550781 60.859375 Z M 156.550781 60.859375 " fill-opacity="1" fill-rule="nonzero"/></g></g></g><g clip-path="url(#c8d490921c)"><path fill="#ff98c0" d="M 153.917969 263.96875 C 176.980469 263.6875 190.257812 255.875 197.503906 249.285156 C 205.601562 254.839844 219.722656 260.582031 242.128906 257.945312 L 242.414062 257.945312 C 243.167969 257.851562 243.824219 257.191406 244.109375 256.53125 C 250.605469 235.726562 247.875 221.132812 244.390625 212.472656 C 243.917969 211.34375 243.449219 210.308594 242.976562 209.367188 C 250.886719 203.527344 261.054688 191.855469 265.574219 169.257812 L 265.667969 168.976562 C 265.855469 168.222656 265.382812 167.375 264.820312 166.90625 C 245.800781 153.441406 230.363281 151.9375 220.570312 153.160156 C 220.382812 152.785156 220.289062 152.3125 220.101562 151.9375 C 216.710938 143.464844 208.707031 131.035156 189.785156 120.492188 L 189.503906 120.398438 C 188.84375 120.019531 187.902344 120.117188 187.335938 120.585938 C 168.695312 134.519531 162.484375 148.734375 160.695312 158.433594 C 150.808594 158.527344 135.839844 162.105469 119.082031 177.636719 L 118.894531 177.828125 C 118.328125 178.390625 118.140625 179.144531 118.328125 179.898438 L 118.328125 179.992188 C 118.894531 181.6875 119.554688 183.382812 120.117188 184.980469 C 127.742188 204 138.476562 213.039062 146.476562 217.367188 C 143.84375 226.03125 142.523438 239.773438 149.867188 258.039062 C 150.527344 259.546875 151.1875 261.144531 151.9375 262.746094 L 152.03125 263.027344 C 152.316406 263.59375 153.070312 263.96875 153.917969 263.96875 Z M 240.625 213.882812 C 243.730469 221.699219 246.273438 234.972656 240.625 254.085938 C 220.476562 256.25 207.765625 251.355469 200.328125 246.363281 C 203.25 243.070312 204.660156 240.433594 204.941406 239.773438 C 209.648438 232.242188 210.875 223.015625 208.519531 214.449219 C 216.144531 217.746094 224.714844 217.933594 232.621094 214.730469 C 232.714844 214.636719 232.90625 214.636719 233 214.542969 C 234.128906 214.167969 236.574219 213.320312 239.589844 211.4375 C 239.964844 212.285156 240.34375 213.039062 240.625 213.882812 Z M 190.820312 197.410156 C 191.292969 196.9375 191.386719 196.28125 191.292969 195.621094 L 190.820312 193.550781 L 192.796875 194.394531 C 193.363281 194.679688 194.117188 194.585938 194.679688 194.300781 L 196.46875 193.171875 L 196.28125 195.335938 C 196.1875 195.996094 196.46875 196.65625 196.941406 197.03125 L 198.542969 198.445312 L 196.46875 198.914062 C 195.8125 199.007812 195.339844 199.480469 195.058594 200.140625 L 194.210938 202.117188 L 193.175781 200.234375 C 192.890625 199.667969 192.234375 199.292969 191.574219 199.292969 L 189.410156 199.105469 Z M 185.171875 197.878906 L 180.746094 194.113281 L 186.585938 192.890625 L 187.242188 195.621094 Z M 200.613281 191.855469 L 206.824219 192.324219 L 202.777344 196.84375 L 200.328125 194.679688 Z M 201.367188 201.832031 L 202.871094 207.953125 L 197.128906 205.410156 L 198.351562 202.492188 Z M 190.164062 203.058594 L 191.761719 205.882812 L 186.585938 208.988281 L 187.242188 202.773438 Z M 194.773438 208.800781 L 203.71875 212.753906 L 203.8125 212.941406 C 207.109375 221.132812 206.261719 230.453125 201.554688 237.890625 C 201.554688 237.984375 201.460938 238.078125 201.460938 238.175781 C 201.460938 238.269531 200.234375 240.808594 197.128906 244.199219 C 193.929688 241.5625 192.328125 239.304688 191.855469 238.644531 C 191.667969 238.457031 191.480469 238.269531 191.292969 238.078125 C 189.597656 235.914062 188.183594 233.5625 187.148438 231.019531 C 185.078125 225.746094 184.609375 219.910156 185.925781 214.355469 Z M 231.492188 210.964844 C 231.210938 211.058594 231.019531 211.15625 230.832031 211.34375 C 223.019531 214.355469 214.546875 213.695312 207.296875 209.554688 L 205.039062 200.328125 L 211.4375 193.265625 C 220.007812 192.890625 228.386719 196.46875 233.847656 203.152344 C 233.941406 203.246094 233.941406 203.246094 234.035156 203.339844 C 234.035156 203.339844 235.730469 204.941406 237.707031 208.234375 C 234.597656 209.929688 232.152344 210.683594 231.492188 210.964844 Z M 261.429688 169.355469 C 257.195312 189.785156 248.15625 200.421875 241 205.789062 C 239.023438 202.585938 237.234375 200.796875 236.765625 200.328125 C 231.210938 193.738281 223.207031 189.785156 214.734375 189.21875 C 220.570312 182.910156 223.582031 174.4375 223.019531 165.777344 C 223.019531 165.585938 223.019531 165.492188 222.925781 165.304688 C 222.925781 163.894531 222.832031 160.972656 221.796875 157.019531 C 230.644531 156.171875 244.484375 157.773438 261.429688 169.355469 Z M 200.046875 187.804688 L 194.492188 178.203125 L 194.398438 178.109375 C 196.660156 169.917969 202.683594 163.234375 210.6875 160.03125 C 210.78125 160.03125 210.875 159.9375 210.96875 159.9375 C 211.0625 159.9375 213.511719 158.527344 217.839844 157.679688 C 219.066406 162.011719 218.972656 165.117188 218.972656 165.777344 C 218.972656 166.058594 218.972656 166.339844 219.066406 166.527344 C 219.535156 174.910156 216.050781 183.097656 209.746094 188.652344 Z M 196.09375 188.746094 L 193.457031 190.347656 L 190.820312 189.21875 L 193.082031 183.664062 Z M 190.066406 179.710938 C 189.972656 180.273438 189.878906 180.933594 189.785156 181.5 L 186.960938 188.464844 C 186.867188 188.464844 186.867188 188.558594 186.773438 188.652344 C 186.679688 188.746094 186.679688 188.746094 186.585938 188.839844 L 176.605469 191.007812 C 171.898438 187.898438 168.226562 183.476562 166.15625 178.203125 C 165.121094 175.566406 164.460938 172.742188 164.273438 169.824219 C 164.273438 169.730469 164.273438 169.636719 164.273438 169.542969 C 164.273438 169.449219 163.707031 166.8125 164.273438 162.480469 C 168.132812 162.761719 170.578125 163.609375 171.238281 163.894531 C 171.519531 163.988281 171.710938 163.988281 171.992188 163.988281 C 179.996094 166.058594 186.679688 171.894531 190.066406 179.710938 Z M 171.992188 159.84375 C 170.863281 159.46875 168.320312 158.808594 164.742188 158.433594 C 166.625 149.769531 172.273438 136.96875 188.75 124.351562 C 205.980469 134.238281 213.320312 145.535156 216.429688 153.347656 C 216.523438 153.535156 216.523438 153.632812 216.617188 153.820312 C 212.378906 154.761719 209.839844 156.078125 209.179688 156.457031 C 201.082031 159.75 194.773438 166.246094 191.667969 174.25 C 187.433594 167.28125 180.464844 162.011719 172.460938 160.03125 C 172.273438 159.84375 172.085938 159.84375 171.992188 159.84375 Z M 123.789062 183.382812 C 123.320312 182.25 122.847656 181.027344 122.472656 179.804688 C 137.816406 165.871094 151.1875 162.574219 160.128906 162.292969 C 159.753906 166.625 160.128906 169.449219 160.316406 170.105469 C 160.507812 173.402344 161.257812 176.601562 162.484375 179.617188 C 164.460938 184.605469 167.753906 188.9375 171.898438 192.324219 C 163.613281 194.019531 156.269531 199.105469 151.75 206.351562 C 151.65625 206.445312 151.5625 206.636719 151.5625 206.730469 C 150.808594 207.765625 149.398438 209.929688 147.890625 213.414062 C 140.546875 209.367188 130.851562 200.890625 123.789062 183.382812 Z M 157.964844 217.085938 C 157.871094 217.085938 157.777344 217.085938 157.683594 216.992188 C 157.398438 216.992188 154.953125 216.613281 151.28125 215.109375 C 152.785156 211.4375 154.386719 209.367188 154.761719 208.707031 C 154.953125 208.519531 155.046875 208.234375 155.140625 208.046875 C 159.847656 200.796875 167.753906 196.183594 176.417969 195.621094 L 183.476562 201.644531 L 182.441406 211.4375 C 175.664062 217.179688 166.625 219.25 157.964844 217.085938 Z M 153.539062 256.34375 C 146.761719 239.398438 147.703125 226.78125 150.054688 218.875 C 153.820312 220.476562 156.457031 220.851562 157.117188 220.945312 C 165.496094 223.015625 174.25 221.605469 181.40625 217.085938 C 180.839844 222.261719 181.5 227.535156 183.476562 232.335938 C 184.042969 233.84375 184.796875 235.351562 185.644531 236.761719 C 186.492188 238.175781 187.433594 239.492188 188.46875 240.808594 C 188.5625 240.90625 188.65625 241 188.75 241.09375 C 189.503906 242.128906 191.199219 244.292969 194.117188 246.742188 C 187.433594 252.671875 175.382812 259.453125 154.859375 260.015625 C 154.480469 258.792969 154.011719 257.566406 153.539062 256.34375 Z M 153.539062 256.34375 " fill-opacity="1" fill-rule="nonzero"/></g><g transform="matrix(1, 0, 0, 1, 172, 205)"><g clip-path="url(#90624d362d)"><path fill="#ffffff" d="M 159.660156 9.789062 C 160.03125 9.839844 160.394531 9.921875 160.746094 10.039062 C 161.101562 10.160156 161.441406 10.308594 161.765625 10.496094 C 162.089844 10.679688 162.394531 10.894531 162.675781 11.136719 C 162.960938 11.378906 163.21875 11.648438 163.449219 11.941406 C 163.679688 12.234375 163.878906 12.546875 164.050781 12.878906 C 164.222656 13.214844 164.359375 13.558594 164.460938 13.917969 C 164.5625 14.277344 164.632812 14.644531 164.664062 15.015625 C 164.695312 15.386719 164.691406 15.757812 164.648438 16.128906 C 164.324219 18.3125 163.945312 20.484375 163.515625 22.648438 C 163.085938 24.8125 162.605469 26.964844 162.074219 29.105469 C 161.546875 31.246094 160.964844 33.371094 160.335938 35.488281 C 159.707031 37.601562 159.027344 39.699219 158.300781 41.78125 C 157.570312 43.863281 156.796875 45.925781 155.972656 47.972656 C 155.148438 50.019531 154.277344 52.042969 153.355469 54.050781 C 152.4375 56.054688 151.472656 58.035156 150.460938 59.996094 C 149.449219 61.957031 148.390625 63.890625 147.289062 65.800781 C 146.1875 67.710938 145.039062 69.597656 143.851562 71.453125 C 142.660156 73.308594 141.425781 75.136719 140.152344 76.9375 C 138.875 78.738281 137.558594 80.503906 136.199219 82.242188 C 134.839844 83.980469 133.441406 85.683594 132.003906 87.355469 C 130.566406 89.027344 129.089844 90.667969 127.574219 92.269531 C 126.058594 93.871094 124.507812 95.441406 122.917969 96.96875 C 121.328125 98.5 119.707031 99.992188 118.046875 101.449219 C 116.390625 102.902344 114.699219 104.316406 112.976562 105.691406 C 111.25 107.066406 109.496094 108.402344 107.707031 109.695312 C 105.921875 110.988281 104.105469 112.238281 102.261719 113.449219 C 100.414062 114.65625 98.542969 115.820312 96.644531 116.941406 C 94.742188 118.0625 92.820312 119.136719 90.867188 120.167969 C 88.917969 121.199219 86.945312 122.183594 84.949219 123.121094 C 82.953125 124.0625 80.9375 124.953125 78.898438 125.796875 C 76.859375 126.640625 74.804688 127.4375 72.730469 128.183594 C 70.652344 128.933594 68.5625 129.632812 66.457031 130.28125 C 64.347656 130.933594 62.226562 131.53125 60.089844 132.082031 C 57.953125 132.632812 55.804688 133.132812 53.648438 133.585938 C 51.488281 134.035156 49.320312 134.433594 47.140625 134.785156 C 44.964844 135.132812 42.777344 135.429688 40.585938 135.675781 C 38.394531 135.921875 36.199219 136.117188 33.996094 136.261719 C 31.796875 136.40625 29.59375 136.5 27.386719 136.539062 C 25.183594 136.582031 22.976562 136.570312 20.773438 136.507812 C 18.570312 136.445312 16.367188 136.332031 14.167969 136.167969 C 13.796875 136.125 13.433594 136.046875 13.078125 135.933594 C 12.722656 135.816406 12.378906 135.671875 12.050781 135.492188 C 11.726562 135.3125 11.417969 135.101562 11.132812 134.859375 C 10.84375 134.621094 10.585938 134.355469 10.351562 134.066406 C 10.117188 133.773438 9.910156 133.464844 9.734375 133.132812 C 9.5625 132.804688 9.421875 132.460938 9.3125 132.101562 C 9.207031 131.746094 9.132812 131.378906 9.097656 131.007812 C 9.058594 130.636719 9.058594 130.265625 9.09375 129.894531 L 10.425781 118.441406 C 10.460938 118.058594 10.535156 117.683594 10.644531 117.316406 C 10.753906 116.945312 10.898438 116.59375 11.082031 116.253906 C 11.261719 115.914062 11.472656 115.597656 11.71875 115.300781 C 11.964844 115.003906 12.234375 114.734375 12.535156 114.492188 C 12.832031 114.25 13.152344 114.039062 13.492188 113.859375 C 13.832031 113.683594 14.1875 113.539062 14.554688 113.433594 C 14.925781 113.324219 15.300781 113.253906 15.683594 113.222656 C 16.066406 113.191406 16.449219 113.195312 16.832031 113.242188 C 18.652344 113.363281 20.476562 113.445312 22.304688 113.480469 C 24.128906 113.519531 25.957031 113.515625 27.78125 113.46875 C 29.609375 113.421875 31.433594 113.332031 33.253906 113.203125 C 35.078125 113.070312 36.894531 112.898438 38.707031 112.683594 C 40.523438 112.46875 42.328125 112.210938 44.132812 111.914062 C 45.933594 111.613281 47.726562 111.273438 49.515625 110.890625 C 51.300781 110.511719 53.078125 110.085938 54.84375 109.625 C 56.609375 109.160156 58.363281 108.65625 60.109375 108.109375 C 61.851562 107.5625 63.582031 106.980469 65.296875 106.351562 C 67.015625 105.726562 68.714844 105.0625 70.398438 104.359375 C 72.085938 103.65625 73.753906 102.914062 75.40625 102.132812 C 77.054688 101.351562 78.6875 100.53125 80.300781 99.675781 C 81.914062 98.816406 83.507812 97.925781 85.078125 96.992188 C 86.648438 96.0625 88.199219 95.097656 89.726562 94.09375 C 91.253906 93.09375 92.757812 92.054688 94.234375 90.984375 C 95.714844 89.910156 97.167969 88.804688 98.597656 87.667969 C 100.023438 86.527344 101.425781 85.355469 102.800781 84.152344 C 104.171875 82.949219 105.519531 81.714844 106.835938 80.449219 C 108.152344 79.183594 109.4375 77.886719 110.695312 76.558594 C 111.949219 75.234375 113.175781 73.878906 114.371094 72.5 C 115.5625 71.117188 116.726562 69.707031 117.855469 68.269531 C 118.984375 66.835938 120.078125 65.375 121.136719 63.886719 C 122.199219 62.398438 123.226562 60.890625 124.214844 59.355469 C 125.207031 57.820312 126.164062 56.265625 127.082031 54.6875 C 128 53.105469 128.882812 51.507812 129.726562 49.890625 C 130.574219 48.269531 131.378906 46.632812 132.148438 44.976562 C 132.917969 43.316406 133.648438 41.644531 134.34375 39.953125 C 135.035156 38.265625 135.6875 36.558594 136.300781 34.835938 C 136.910156 33.117188 137.484375 31.382812 138.015625 29.636719 C 138.550781 27.886719 139.042969 26.128906 139.492188 24.359375 C 139.945312 22.589844 140.355469 20.8125 140.722656 19.023438 C 141.09375 17.234375 141.417969 15.4375 141.707031 13.632812 C 141.746094 13.25 141.828125 12.875 141.941406 12.507812 C 142.058594 12.144531 142.210938 11.792969 142.398438 11.457031 C 142.585938 11.121094 142.800781 10.804688 143.050781 10.515625 C 143.300781 10.222656 143.578125 9.957031 143.878906 9.71875 C 144.183594 9.484375 144.503906 9.277344 144.847656 9.105469 C 145.191406 8.933594 145.550781 8.796875 145.921875 8.695312 C 146.292969 8.59375 146.667969 8.53125 147.050781 8.503906 C 147.4375 8.480469 147.816406 8.492188 148.199219 8.542969 Z M 159.660156 9.789062 " fill-opacity="1" fill-rule="nonzero"/><g fill="#ff98c0" fill-opacity="1"><g transform="translate(14.968009, 129.153086)"><g><path d="M 4.203125 -7.6875 L 3.796875 -6.390625 C 4.671875 -6.441406 5.382812 -6.316406 5.9375 -6.015625 C 6.488281 -5.722656 6.890625 -5.3125 7.140625 -4.78125 C 7.398438 -4.257812 7.515625 -3.660156 7.484375 -2.984375 C 7.453125 -2.265625 7.242188 -1.65625 6.859375 -1.15625 C 6.484375 -0.65625 5.992188 -0.28125 5.390625 -0.03125 C 4.785156 0.207031 4.128906 0.3125 3.421875 0.28125 C 2.773438 0.257812 2.144531 0.078125 1.53125 -0.265625 C 0.914062 -0.617188 0.390625 -1.210938 -0.046875 -2.046875 L 1.671875 -3.140625 C 1.898438 -2.742188 2.117188 -2.441406 2.328125 -2.234375 C 2.546875 -2.035156 2.753906 -1.898438 2.953125 -1.828125 C 3.148438 -1.753906 3.335938 -1.71875 3.515625 -1.71875 C 3.816406 -1.695312 4.101562 -1.726562 4.375 -1.8125 C 4.65625 -1.90625 4.882812 -2.054688 5.0625 -2.265625 C 5.238281 -2.472656 5.332031 -2.75 5.34375 -3.09375 C 5.363281 -3.632812 5.203125 -4.03125 4.859375 -4.28125 C 4.515625 -4.539062 4.109375 -4.679688 3.640625 -4.703125 C 3.523438 -4.703125 3.382812 -4.6875 3.21875 -4.65625 C 3.050781 -4.632812 2.789062 -4.585938 2.4375 -4.515625 L 1.375 -5.390625 L 2.765625 -9.6875 L 7.375 -9.484375 L 7.296875 -7.5625 Z M 4.203125 -7.6875 "/></g></g></g><g fill="#ff98c0" fill-opacity="1"><g transform="translate(25.836391, 129.453328)"><g/></g></g><g fill="#ff98c0" fill-opacity="1"><g transform="translate(32.459812, 129.274488)"><g><path d="M 2.71875 -3.75 L 3.015625 -0.265625 L 0.859375 -0.078125 L 0.015625 -9.84375 L 1.640625 -9.984375 L 2.171875 -10.03125 L 3.671875 -10.15625 C 4.203125 -10.207031 4.703125 -10.117188 5.171875 -9.890625 C 5.648438 -9.660156 6.046875 -9.320312 6.359375 -8.875 C 6.679688 -8.4375 6.867188 -7.90625 6.921875 -7.28125 C 6.984375 -6.625 6.894531 -6.046875 6.65625 -5.546875 C 6.414062 -5.054688 6.082031 -4.664062 5.65625 -4.375 C 5.226562 -4.09375 4.75 -3.925781 4.21875 -3.875 Z M 3.453125 -8.421875 L 2.3125 -8.328125 L 2.5625 -5.453125 L 3.703125 -5.546875 C 4.023438 -5.578125 4.3125 -5.726562 4.5625 -6 C 4.8125 -6.269531 4.914062 -6.632812 4.875 -7.09375 C 4.832031 -7.539062 4.664062 -7.878906 4.375 -8.109375 C 4.082031 -8.347656 3.773438 -8.453125 3.453125 -8.421875 Z M 3.453125 -8.421875 "/></g></g></g><g fill="#ff98c0" fill-opacity="1"><g transform="translate(43.244075, 128.206048)"><g><path d="M 6.125 -3 L 6.453125 -1.078125 L 0.84375 -0.140625 L -0.78125 -9.796875 L 4.828125 -10.734375 L 5.15625 -8.8125 L 1.6875 -8.234375 L 2.015625 -6.3125 L 5.328125 -6.875 L 5.640625 -4.953125 L 2.328125 -4.390625 L 2.65625 -2.421875 Z M 6.125 -3 "/></g></g></g><g fill="#ff98c0" fill-opacity="1"><g transform="translate(53.573925, 126.356757)"><g><path d="M 2.96875 -8.828125 L 4.875 -1.21875 L 2.765625 -0.703125 L 0.859375 -8.3125 L -1.828125 -7.625 L -2.3125 -9.515625 L 5.203125 -11.40625 L 5.6875 -9.515625 Z M 2.96875 -8.828125 "/></g></g></g><g fill="#ff98c0" fill-opacity="1"><g transform="translate(64.247306, 123.577496)"><g><path d="M 4.609375 -5.578125 L 2.28125 -8.453125 L 2.28125 -4.765625 Z M 9.3125 -3.25 L 7.109375 -2.484375 L 5.796875 -4.109375 L 2.265625 -2.875 L 2.25 -0.78125 L 0.078125 -0.03125 L 0.59375 -10.578125 L 2.3125 -11.1875 Z M 9.3125 -3.25 "/></g></g></g><g fill="#ff98c0" fill-opacity="1"><g transform="translate(76.493931, 119.095729)"><g><path d="M 0.78125 -0.359375 L -3.234375 -9.296875 L -1.25 -10.171875 L 1.96875 -3.015625 L 5.171875 -4.46875 L 5.96875 -2.6875 Z M 0.78125 -0.359375 "/></g></g></g><g fill="#ff98c0" fill-opacity="1"><g transform="translate(85.765662, 114.875262)"><g><path d="M 4.9375 -8.421875 C 4.6875 -8.859375 4.335938 -9.203125 3.890625 -9.453125 C 3.441406 -9.703125 2.957031 -9.835938 2.4375 -9.859375 C 1.925781 -9.878906 1.445312 -9.765625 1 -9.515625 C 0.5625 -9.273438 0.21875 -8.925781 -0.03125 -8.46875 C -0.28125 -8.007812 -0.410156 -7.523438 -0.421875 -7.015625 C -0.441406 -6.503906 -0.328125 -6.03125 -0.078125 -5.59375 C 0.160156 -5.15625 0.503906 -4.8125 0.953125 -4.5625 C 1.398438 -4.3125 1.882812 -4.171875 2.40625 -4.140625 C 2.925781 -4.117188 3.40625 -4.226562 3.84375 -4.46875 C 4.289062 -4.71875 4.632812 -5.070312 4.875 -5.53125 C 5.125 -6 5.253906 -6.488281 5.265625 -7 C 5.285156 -7.507812 5.175781 -7.984375 4.9375 -8.421875 Z M 6.828125 -9.46875 C 7.160156 -8.882812 7.351562 -8.257812 7.40625 -7.59375 C 7.46875 -6.925781 7.410156 -6.273438 7.234375 -5.640625 C 7.066406 -5.015625 6.78125 -4.429688 6.375 -3.890625 C 5.976562 -3.359375 5.484375 -2.925781 4.890625 -2.59375 C 4.304688 -2.257812 3.679688 -2.0625 3.015625 -2 C 2.359375 -1.9375 1.710938 -1.992188 1.078125 -2.171875 C 0.441406 -2.347656 -0.140625 -2.632812 -0.671875 -3.03125 C -1.203125 -3.4375 -1.632812 -3.929688 -1.96875 -4.515625 C -2.300781 -5.109375 -2.5 -5.734375 -2.5625 -6.390625 C -2.625 -7.046875 -2.566406 -7.691406 -2.390625 -8.328125 C -2.210938 -8.972656 -1.921875 -9.554688 -1.515625 -10.078125 C -1.117188 -10.609375 -0.628906 -11.039062 -0.046875 -11.375 C 0.546875 -11.707031 1.171875 -11.910156 1.828125 -11.984375 C 2.492188 -12.054688 3.140625 -12 3.765625 -11.8125 C 4.398438 -11.625 4.984375 -11.332031 5.515625 -10.9375 C 6.054688 -10.550781 6.492188 -10.0625 6.828125 -9.46875 Z M 6.828125 -9.46875 "/></g></g></g><g fill="#ff98c0" fill-opacity="1"><g transform="translate(98.090487, 107.69625)"><g><path d="M 2.953125 -3.9375 C 3.140625 -4.0625 3.320312 -4.234375 3.5 -4.453125 C 3.675781 -4.671875 3.796875 -4.898438 3.859375 -5.140625 C 3.921875 -5.390625 3.875 -5.628906 3.71875 -5.859375 C 3.5625 -6.078125 3.351562 -6.195312 3.09375 -6.21875 C 2.832031 -6.238281 2.53125 -6.195312 2.1875 -6.09375 C 1.851562 -5.988281 1.492188 -5.859375 1.109375 -5.703125 C 0.734375 -5.546875 0.34375 -5.398438 -0.0625 -5.265625 C -0.46875 -5.140625 -0.867188 -5.070312 -1.265625 -5.0625 C -1.660156 -5.050781 -2.035156 -5.117188 -2.390625 -5.265625 C -2.753906 -5.421875 -3.085938 -5.710938 -3.390625 -6.140625 C -3.679688 -6.554688 -3.84375 -6.972656 -3.875 -7.390625 C -3.914062 -7.816406 -3.863281 -8.234375 -3.71875 -8.640625 C -3.570312 -9.046875 -3.351562 -9.421875 -3.0625 -9.765625 C -2.78125 -10.117188 -2.457031 -10.421875 -2.09375 -10.671875 C -1.539062 -11.054688 -0.960938 -11.332031 -0.359375 -11.5 C 0.234375 -11.664062 0.8125 -11.664062 1.375 -11.5 C 1.9375 -11.332031 2.445312 -10.945312 2.90625 -10.34375 L 1.1875 -9.15625 C 0.851562 -9.539062 0.503906 -9.726562 0.140625 -9.71875 C -0.210938 -9.707031 -0.609375 -9.546875 -1.046875 -9.234375 C -1.210938 -9.117188 -1.367188 -8.96875 -1.515625 -8.78125 C -1.671875 -8.601562 -1.769531 -8.40625 -1.8125 -8.1875 C -1.851562 -7.976562 -1.800781 -7.769531 -1.65625 -7.5625 C -1.519531 -7.351562 -1.328125 -7.25 -1.078125 -7.25 C -0.828125 -7.25 -0.53125 -7.304688 -0.1875 -7.421875 C 0.144531 -7.535156 0.5 -7.675781 0.875 -7.84375 C 1.25 -8.007812 1.632812 -8.15625 2.03125 -8.28125 C 2.4375 -8.40625 2.835938 -8.472656 3.234375 -8.484375 C 3.640625 -8.503906 4.023438 -8.429688 4.390625 -8.265625 C 4.753906 -8.109375 5.09375 -7.804688 5.40625 -7.359375 C 5.726562 -6.890625 5.910156 -6.421875 5.953125 -5.953125 C 6.003906 -5.484375 5.9375 -5.035156 5.75 -4.609375 C 5.570312 -4.191406 5.316406 -3.796875 4.984375 -3.421875 C 4.660156 -3.054688 4.296875 -2.726562 3.890625 -2.4375 C 3.296875 -2.03125 2.671875 -1.742188 2.015625 -1.578125 C 1.359375 -1.410156 0.722656 -1.425781 0.109375 -1.625 C -0.492188 -1.820312 -1.03125 -2.242188 -1.5 -2.890625 L 0.296875 -4.140625 C 0.660156 -3.679688 1.082031 -3.453125 1.5625 -3.453125 C 2.050781 -3.460938 2.515625 -3.625 2.953125 -3.9375 Z M 2.953125 -3.9375 "/></g></g></g><g fill="#ff98c0" fill-opacity="1"><g transform="translate(107.893552, 100.573556)"><g/></g></g><g fill="#ff98c0" fill-opacity="1"><g transform="translate(113.052717, 96.376383)"><g><path d="M 0.828125 -3.5 L 1.296875 -3.9375 C 1.710938 -4.320312 1.984375 -4.75 2.109375 -5.21875 C 2.234375 -5.695312 2.226562 -6.175781 2.09375 -6.65625 C 1.96875 -7.132812 1.722656 -7.570312 1.359375 -7.96875 C 0.984375 -8.363281 0.5625 -8.644531 0.09375 -8.8125 C -0.375 -8.976562 -0.847656 -9.007812 -1.328125 -8.90625 C -1.804688 -8.8125 -2.253906 -8.570312 -2.671875 -8.1875 L -3.140625 -7.75 Z M -6.0625 -7.75 L -3.921875 -9.734375 C -3.421875 -10.203125 -2.867188 -10.546875 -2.265625 -10.765625 C -1.660156 -10.984375 -1.046875 -11.082031 -0.421875 -11.0625 C 0.203125 -11.050781 0.804688 -10.910156 1.390625 -10.640625 C 1.972656 -10.378906 2.5 -9.992188 2.96875 -9.484375 C 3.4375 -8.972656 3.785156 -8.414062 4.015625 -7.8125 C 4.242188 -7.21875 4.347656 -6.609375 4.328125 -5.984375 C 4.304688 -5.359375 4.164062 -4.75 3.90625 -4.15625 C 3.644531 -3.570312 3.265625 -3.046875 2.765625 -2.578125 L 0.625 -0.59375 Z M -6.0625 -7.75 "/></g></g></g><g fill="#ff98c0" fill-opacity="1"><g transform="translate(121.891641, 87.884516)"><g><path d="M 2.9375 -6.171875 L 4.390625 -4.859375 L 0.578125 -0.640625 L -6.6875 -7.203125 L -2.875 -11.421875 L -1.4375 -10.109375 L -3.796875 -7.5 L -2.34375 -6.203125 L -0.09375 -8.703125 L 1.359375 -7.390625 L -0.890625 -4.890625 L 0.578125 -3.5625 Z M 2.9375 -6.171875 "/></g></g></g><g fill="#ff98c0" fill-opacity="1"><g transform="translate(128.756946, 80.047777)"><g/></g></g><g fill="#ff98c0" fill-opacity="1"><g transform="translate(132.904636, 74.829618)"><g><path d="M -2.546875 -13.671875 L 3.3125 -4.875 L 2.265625 -3.328125 L -8.046875 -5.578125 L -6.734375 -7.5 L -1.0625 -6.078125 L 0.515625 -5.640625 L -0.453125 -6.953125 L -3.859375 -11.734375 Z M -2.546875 -13.671875 "/></g></g></g><g fill="#ff98c0" fill-opacity="1"><g transform="translate(140.090048, 63.938856)"><g><path d="M 1.5 -6.671875 L 3.203125 -5.71875 L 0.421875 -0.75 L -8.125 -5.53125 L -5.34375 -10.5 L -3.640625 -9.546875 L -5.359375 -6.46875 L -3.65625 -5.515625 L -2.015625 -8.453125 L -0.3125 -7.5 L -1.953125 -4.5625 L -0.21875 -3.59375 Z M 1.5 -6.671875 "/></g></g></g><g fill="#ff98c0" fill-opacity="1"><g transform="translate(145.148812, 54.712448)"><g><path d="M 3.53125 -7.796875 L 2.625 -5.828125 L -4.3125 -5.28125 L 1.25 -2.765625 L 0.359375 -0.78125 L -8.5625 -4.8125 L -7.671875 -6.796875 L -0.734375 -7.34375 L -6.296875 -9.859375 L -5.390625 -11.828125 Z M 3.53125 -7.796875 "/></g></g></g><g fill="#ff98c0" fill-opacity="1"><g transform="translate(150.190581, 43.1969)"><g><path d="M -7.125 -9.40625 L -6.421875 -11.46875 L -0.765625 -9.515625 C 0.460938 -9.097656 1.273438 -8.441406 1.671875 -7.546875 C 2.078125 -6.648438 2.078125 -5.601562 1.671875 -4.40625 C 1.253906 -3.1875 0.613281 -2.347656 -0.25 -1.890625 C -1.125 -1.441406 -2.175781 -1.425781 -3.40625 -1.84375 L -9.0625 -3.796875 L -8.359375 -5.84375 L -3.015625 -4 C -2.367188 -3.78125 -1.828125 -3.734375 -1.390625 -3.859375 C -0.953125 -3.992188 -0.613281 -4.410156 -0.375 -5.109375 C -0.132812 -5.804688 -0.144531 -6.332031 -0.40625 -6.6875 C -0.675781 -7.050781 -1.132812 -7.34375 -1.78125 -7.5625 Z M -7.125 -9.40625 "/></g></g></g><g fill="#ff98c0" fill-opacity="1"><g transform="translate(154.117715, 31.291679)"><g><path d="M -0.375 -4.90625 C -0.320312 -5.125 -0.300781 -5.367188 -0.3125 -5.640625 C -0.320312 -5.910156 -0.382812 -6.160156 -0.5 -6.390625 C -0.613281 -6.628906 -0.804688 -6.78125 -1.078125 -6.84375 C -1.335938 -6.914062 -1.570312 -6.867188 -1.78125 -6.703125 C -2 -6.546875 -2.195312 -6.316406 -2.375 -6.015625 C -2.5625 -5.710938 -2.742188 -5.378906 -2.921875 -5.015625 C -3.097656 -4.648438 -3.296875 -4.285156 -3.515625 -3.921875 C -3.742188 -3.566406 -4 -3.253906 -4.28125 -2.984375 C -4.570312 -2.710938 -4.90625 -2.515625 -5.28125 -2.390625 C -5.65625 -2.265625 -6.09375 -2.257812 -6.59375 -2.375 C -7.09375 -2.5 -7.492188 -2.707031 -7.796875 -3 C -8.109375 -3.289062 -8.34375 -3.632812 -8.5 -4.03125 C -8.65625 -4.4375 -8.738281 -4.863281 -8.75 -5.3125 C -8.757812 -5.757812 -8.710938 -6.195312 -8.609375 -6.625 C -8.453125 -7.28125 -8.203125 -7.867188 -7.859375 -8.390625 C -7.515625 -8.910156 -7.078125 -9.296875 -6.546875 -9.546875 C -6.023438 -9.796875 -5.394531 -9.84375 -4.65625 -9.6875 L -5.15625 -7.65625 C -5.65625 -7.726562 -6.035156 -7.640625 -6.296875 -7.390625 C -6.566406 -7.148438 -6.765625 -6.769531 -6.890625 -6.25 C -6.929688 -6.050781 -6.945312 -5.832031 -6.9375 -5.59375 C -6.9375 -5.363281 -6.878906 -5.15625 -6.765625 -4.96875 C -6.648438 -4.78125 -6.472656 -4.65625 -6.234375 -4.59375 C -5.992188 -4.53125 -5.78125 -4.578125 -5.59375 -4.734375 C -5.40625 -4.898438 -5.222656 -5.140625 -5.046875 -5.453125 C -4.867188 -5.765625 -4.691406 -6.101562 -4.515625 -6.46875 C -4.335938 -6.832031 -4.140625 -7.191406 -3.921875 -7.546875 C -3.710938 -7.910156 -3.457031 -8.226562 -3.15625 -8.5 C -2.863281 -8.78125 -2.523438 -8.976562 -2.140625 -9.09375 C -1.765625 -9.21875 -1.316406 -9.210938 -0.796875 -9.078125 C -0.234375 -8.941406 0.210938 -8.71875 0.546875 -8.40625 C 0.890625 -8.09375 1.132812 -7.71875 1.28125 -7.28125 C 1.425781 -6.84375 1.5 -6.367188 1.5 -5.859375 C 1.5 -5.359375 1.4375 -4.867188 1.3125 -4.390625 C 1.144531 -3.691406 0.863281 -3.066406 0.46875 -2.515625 C 0.0820312 -1.960938 -0.398438 -1.554688 -0.984375 -1.296875 C -1.566406 -1.046875 -2.25 -1.007812 -3.03125 -1.1875 L -2.515625 -3.3125 C -1.941406 -3.195312 -1.472656 -3.300781 -1.109375 -3.625 C -0.742188 -3.957031 -0.5 -4.382812 -0.375 -4.90625 Z M -0.375 -4.90625 "/></g></g></g><g fill="#ff98c0" fill-opacity="1"><g transform="translate(156.787024, 19.471887)"><g/></g></g></g></g></svg>